PathFileType	4	(X/Y/Z)	 New Session 104.trc
DataRate	CameraRate	NumFrames	NumMarkers	Units	OrigDataRate	OrigDataStartFrame	OrigNumFrames
100	100	17	14	m	100	166	660
Frame#	Time	C7			T8			IJ			PX			AA			AC			AI			TS			SC			GH			LE			ME			US			RS			
		X1	Y1	Z1	X2	Y2	Z2	X3	Y3	Z3	X4	Y4	Z4	X5	Y5	Z5	X6	Y6	Z6	X7	Y7	Z7	X8	Y8	Z8	X9	Y9	Z9	X10	Y10	Z10	X11	Y11	Z11	X12	Y12	Z12	X13	Y13	Z13	X14	Y14	Z14	
166	1.6600	0.024057	0.099809	0.169319	0.028297	-0.115415	0.233469	-0.004440	0.001635	0.003089	-0.005686	-0.141098	-0.067901	0.224669	-0.001325	0.125281	0.169651	0.044042	0.061024	0.110822	0.021374	0.196439	0.111288	-0.096299	0.226431	0.020543	0.009336	0.007162	0.233732	0.011562	0.084365	0.271778	-0.280920	0.019561	0.186454	-0.302341	-0.011781	0.306263	-0.543733	-0.074764	0.368526	-0.507473	-0.103945	
167	1.6700	0.024001	0.099823	0.169203	0.028267	-0.115383	0.233363	-0.004441	0.001648	0.002998	-0.005712	-0.141107	-0.067986	0.224609	-0.001295	0.125226	0.169607	0.044067	0.060950	0.110765	0.021388	0.196347	0.111229	-0.096271	0.226335	0.020506	0.009338	0.007085	0.233684	0.011599	0.084308	0.271733	-0.280895	0.019531	0.186400	-0.302356	-0.011818	0.306219	-0.543701	-0.074833	0.368489	-0.507449	-0.103996	
168	1.6800	0.023952	0.099824	0.169070	0.028229	-0.115351	0.233227	-0.004446	0.001676	0.002902	-0.005742	-0.141094	-0.068085	0.224549	-0.001261	0.125172	0.169561	0.044098	0.060861	0.110691	0.021402	0.196249	0.111142	-0.096217	0.226287	0.020479	0.009370	0.006989	0.233635	0.011643	0.084250	0.271700	-0.280873	0.019525	0.186353	-0.302359	-0.011847	0.306189	-0.543672	-0.074882	0.368462	-0.507424	-0.104043	
169	1.6900	0.023910	0.099804	0.168910	0.028188	-0.115321	0.233087	-0.004468	0.001703	0.002787	-0.005775	-0.141070	-0.068200	0.224492	-0.001225	0.125110	0.169513	0.044135	0.060756	0.110611	0.021421	0.196142	0.111049	-0.096165	0.226234	0.020480	0.009435	0.006858	0.233589	0.011690	0.084186	0.271695	-0.280844	0.019542	0.186333	-0.302342	-0.011900	0.306174	-0.543649	-0.074911	0.368447	-0.507397	-0.104085	
170	1.7000	0.023874	0.099773	0.168733	0.028151	-0.115292	0.232959	-0.004512	0.001708	0.002646	-0.005809	-0.141053	-0.068329	0.224440	-0.001190	0.125034	0.169468	0.044168	0.060640	0.110533	0.021442	0.196028	0.110973	-0.096127	0.226159	0.020509	0.009508	0.006703	0.233546	0.011729	0.084116	0.271712	-0.280811	0.019565	0.186347	-0.302320	-0.011982	0.306175	-0.543633	-0.074925	0.368444	-0.507371	-0.104119	
171	1.7100	0.023838	0.099754	0.168567	0.028120	-0.115262	0.232846	-0.004571	0.001682	0.002478	-0.005844	-0.141059	-0.068458	0.224398	-0.001160	0.124944	0.169426	0.044187	0.060521	0.110465	0.021460	0.195914	0.110929	-0.096098	0.226076	0.020537	0.009549	0.006548	0.233507	0.011755	0.084041	0.271730	-0.280787	0.019572	0.186376	-0.302311	-0.012064	0.306191	-0.543625	-0.074936	0.368455	-0.507349	-0.104141	
172	1.7200	0.023800	0.099755	0.168427	0.028092	-0.115227	0.232741	-0.004636	0.001633	0.002295	-0.005878	-0.141085	-0.068572	0.224362	-0.001138	0.124846	0.169388	0.044187	0.060405	0.110411	0.021477	0.195805	0.110913	-0.096069	0.225998	0.020540	0.009542	0.006402	0.233471	0.011766	0.083964	0.271731	-0.280781	0.019551	0.186377	-0.302311	-0.012152	0.306215	-0.543626	-0.074965	0.368481	-0.507333	-0.104154	
173	1.7300	0.023756	0.099772	0.168304	0.028063	-0.115188	0.232639	-0.004697	0.001590	0.002118	-0.005915	-0.141119	-0.068663	0.224328	-0.001123	0.124747	0.169351	0.044174	0.060293	0.110369	0.021496	0.195697	0.110907	-0.096035	0.225927	0.020517	0.009503	0.006263	0.233432	0.011772	0.083886	0.271714	-0.280787	0.019513	0.186330	-0.302312	-0.012297	0.306240	-0.543636	-0.075034	0.368518	-0.507322	-0.104159	
174	1.7400	0.023702	0.099797	0.168183	0.028032	-0.115148	0.232534	-0.004757	0.001573	0.001961	-0.005959	-0.141150	-0.068741	0.224290	-0.001112	0.124648	0.169312	0.044161	0.060184	0.110326	0.021522	0.195583	0.110893	-0.095994	0.225864	0.020477	0.009466	0.006121	0.233389	0.011782	0.083804	0.271688	-0.280797	0.019469	0.186268	-0.302311	-0.012480	0.306258	-0.543654	-0.075156	0.368566	-0.507312	-0.104160	
175	1.7500	0.023640	0.099829	0.168059	0.027999	-0.115111	0.232422	-0.004828	0.001581	0.001814	-0.006013	-0.141178	-0.068818	0.224247	-0.001100	0.124548	0.169273	0.044159	0.060073	0.110273	0.021553	0.195457	0.110864	-0.095949	0.225804	0.020428	0.009455	0.005969	0.233344	0.011805	0.083715	0.271664	-0.280797	0.019428	0.186226	-0.302311	-0.012620	0.306263	-0.543677	-0.075334	0.368620	-0.507300	-0.104159	
176	1.7600	0.023571	0.099877	0.167939	0.027964	-0.115077	0.232306	-0.004916	0.001601	0.001667	-0.006068	-0.141206	-0.068903	0.224198	-0.001080	0.124445	0.169233	0.044169	0.059957	0.110210	0.021587	0.195325	0.110822	-0.095902	0.225737	0.020369	0.009469	0.005809	0.233300	0.011841	0.083619	0.271651	-0.280777	0.019387	0.186215	-0.302314	-0.012672	0.306258	-0.543699	-0.075550	0.368675	-0.507285	-0.104156	
177	1.7700	0.023498	0.099942	0.167833	0.027927	-0.115044	0.232188	-0.005011	0.001623	0.001513	-0.006111	-0.141243	-0.069007	0.224150	-0.001049	0.124342	0.169194	0.044186	0.059837	0.110145	0.021618	0.195197	0.110777	-0.095855	0.225660	0.020311	0.009489	0.005649	0.233256	0.011882	0.083517	0.271649	-0.280742	0.019341	0.186225	-0.302316	-0.012659	0.306246	-0.543719	-0.075772	0.368726	-0.507270	-0.104152	
178	1.7800	0.023429	0.100010	0.167740	0.027887	-0.115013	0.232071	-0.005094	0.001637	0.001356	-0.006137	-0.141298	-0.069128	0.224110	-0.001011	0.124245	0.169157	0.044206	0.059715	0.110085	0.021641	0.195084	0.110736	-0.095814	0.225574	0.020270	0.009499	0.005497	0.233207	0.011913	0.083411	0.271653	-0.280706	0.019292	0.186253	-0.302314	-0.012635	0.306237	-0.543734	-0.075966	0.368770	-0.507259	-0.104145	
179	1.7900	0.023370	0.100056	0.167646	0.027841	-0.114985	0.231952	-0.005146	0.001638	0.001207	-0.006149	-0.141372	-0.069256	0.224078	-0.000974	0.124153	0.169124	0.044224	0.059596	0.110034	0.021656	0.194983	0.110698	-0.095786	0.225484	0.020256	0.009497	0.005358	0.233152	0.011929	0.083298	0.271657	-0.280679	0.019239	0.186298	-0.302314	-0.012634	0.306236	-0.543744	-0.076103	0.368805	-0.507256	-0.104132	
180	1.8000	0.023321	0.100078	0.167541	0.027788	-0.114962	0.231830	-0.005159	0.001636	0.001075	-0.006156	-0.141444	-0.069372	0.224046	-0.000947	0.124059	0.169094	0.044238	0.059483	0.109992	0.021665	0.194885	0.110664	-0.095771	0.225394	0.020260	0.009487	0.005229	0.233095	0.011939	0.083186	0.271655	-0.280665	0.019177	0.186354	-0.302323	-0.012672	0.306244	-0.543752	-0.076175	0.368832	-0.507262	-0.104111	
181	1.8100	0.023278	0.100088	0.167422	0.027733	-0.114945	0.231707	-0.005141	0.001637	0.000958	-0.006163	-0.141492	-0.069466	0.224010	-0.000934	0.123954	0.169066	0.044248	0.059375	0.109959	0.021675	0.194780	0.110632	-0.095764	0.225306	0.020262	0.009479	0.005098	0.233046	0.011950	0.083079	0.271642	-0.280657	0.019103	0.186412	-0.302334	-0.012752	0.306260	-0.543758	-0.076189	0.368856	-0.507276	-0.104080	
182	1.8200	0.023239	0.100097	0.167292	0.027687	-0.114933	0.231587	-0.005118	0.001643	0.000851	-0.006171	-0.141523	-0.069546	0.223975	-0.000926	0.123840	0.169037	0.044255	0.059269	0.109934	0.021692	0.194667	0.110604	-0.095756	0.225216	0.020247	0.009481	0.004954	0.233011	0.011968	0.082977	0.271623	-0.280644	0.019018	0.186460	-0.302340	-0.012869	0.306277	-0.543767	-0.076168	0.368879	-0.507294	-0.104041	
